<?xml version="1.0" standalone="no"?>
<!DOCTYPE svg PUBLIC "-//W3C//DTD SVG 1.1//EN" "http://www.w3.org/Graphics/SVG/1.1/DTD/svg11.dtd" >
<svg xmlns="http://www.w3.org/2000/svg">
<metadata></metadata>
<defs>
<font id="a750-sans-cd-mediumregular" horiz-adv-x="616" >
<font-face units-per-em="2048" ascent="1638" descent="-410" />
<missing-glyph horiz-adv-x="411" />
<glyph horiz-adv-x="2048" />
<glyph horiz-adv-x="2048" />
<glyph unicode="&#xd;" horiz-adv-x="411" />
<glyph unicode=" "  horiz-adv-x="411" />
<glyph unicode="&#x09;" horiz-adv-x="411" />
<glyph unicode="&#xa0;" horiz-adv-x="411" />
<glyph unicode="!" horiz-adv-x="438" d="M145 2v264h160v-264h-160zM150 823v604h159l4 -239q0 -295 -45 -733h-86l-20 184q-12 111 -12 184z" />
<glyph unicode="&#x22;" horiz-adv-x="577" d="M63 1182v266h164v-256q0 -106 -31.5 -167.5t-121.5 -117.5v39q51 51 65 109l6 127h-82zM338 1182v266h162v-246q0 -215 -160 -293v43q78 78 78 199v16l-2 15h-78z" />
<glyph unicode="#" horiz-adv-x="1134" d="M68 422v137h219l53 395h-219v140h239l60 422h141l-59 -422h254l59 422h141l-59 -422h170v-138h-190l-56 -397h189v-137h-207l-60 -422h-141l60 422h-254l-60 -422h-141l59 422h-198zM428 559h252l55 397h-252z" />
<glyph unicode="$" horiz-adv-x="636" d="M39 297v221h164l-2 -102q0 -270 121 -271q113 0 112 168q0 125 -102 273l-189 254q-102 162 -102 325q0 104 59.5 191.5t163.5 111.5v113h92v-111q166 -37 209 -174q18 -61 19 -288h-160l2 43v43q0 219 -117 219q-43 0 -73 -51q-23 -45 -23 -95q0 -117 102 -268l193 -262 q102 -168 102 -328q0 -272 -256 -321v-142h-92v144q-223 68 -223 307z" />
<glyph unicode="%" horiz-adv-x="1146" d="M-6 782v402q0 131 35 194q47 84 168 84q123 0 159 -98q20 -57 21 -205l2 -411q0 -215 -184 -216q-123 0 -166 68q-35 53 -35 182zM111 754q-1 -121 73 -121q76 0 76 137v471q0 119 -65 119q-84 0 -84 -103v-503zM178 -10l651 1507l101 -43l-647 -1505zM727 657 q0 262 197 263q115 0 157 -91q29 -61 29 -192v-193l-2 -194q0 -137 -35 -193q-43 -72 -174 -71q-170 0 -170 241v215zM842 221q0 -129 80 -129q76 0 75 158l-2 45v47l2 320q0 160 -71 159q-61 0 -76 -57q-6 -23 -6 -109v-112l-2 -115v-207z" />
<glyph unicode="&#x26;" horiz-adv-x="905" d="M25 389q0 197 155 373q-84 174 -84 319q0 139 75 242.5t210 103.5q102 0 170 -75q57 -70 57 -178q0 -102 -69 -230q-59 -104 -146 -194q47 -133 180 -340q25 106 43 317l166 2q0 -231 -88 -475q70 -53 168 -84v-184q-55 8 -133 49l-129 63q-125 -115 -235 -114 q-162 0 -256 125q-84 113 -84 280zM195 399q0 -96 34 -159q45 -82 129 -82q45 0 119 67q-88 142 -213 373q-70 -143 -69 -199zM264 1100q0 -90 47 -199q138 192 138 270q0 39 -23 75t-57 36q-104 0 -105 -182z" />
<glyph unicode="'" horiz-adv-x="288" d="M59 903v250q0 207 158 287v-35q-74 -72 -74 -180v-56h80v-266h-164z" />
<glyph unicode="(" horiz-adv-x="493" d="M43 532q0 633 420 953v-123q-233 -209 -234 -803q0 -303 33 -465q49 -236 199 -416v-108q-215 160 -322 428q-96 242 -96 534z" />
<glyph unicode=")" horiz-adv-x="493" d="M12 -313q135 152 195 403q18 90 28.5 201.5t10.5 249.5q0 584 -228 829v121q412 -332 412 -971q0 -305 -94 -529t-324 -419v115z" />
<glyph unicode="*" horiz-adv-x="782" d="M37 1135l41 149q68 -25 133 -51.5t119 -56.5q-35 123 -35 192l4 80h145l2 -37v-37q0 -102 -26 -184q86 39 258 94l43 -149q-59 -20 -129 -30.5t-158 -10.5q53 -14 109 -86l88 -115l-133 -88l-78 121q-23 45 -41 139l-43 -129q-16 -37 -82 -125l-123 72q8 43 72.5 117.5 t111.5 97.5l-98 -8q-31 0 -180 45z" />
<glyph unicode="+" horiz-adv-x="989" d="M25 518v166h366v371h166v-371h369v-166h-369v-371h-166v371h-366z" />
<glyph unicode="," horiz-adv-x="288" d="M57 4v264h168v-250q0 -115 -35 -172q-31 -61 -127 -125v52q49 41 68 96q10 41 10 119v16h-84z" />
<glyph unicode="-" horiz-adv-x="454" d="M43 582v174h369v-174h-369z" />
<glyph unicode="." horiz-adv-x="288" d="M55 4v266h174v-266h-174z" />
<glyph unicode="/" horiz-adv-x="493" d="M-2 8l321 1438h156l-321 -1438h-156z" />
<glyph unicode="0" horiz-adv-x="700" d="M39 385l2 676q0 213 53 295q67 108 266 108q154 0 222 -98q55 -80 55 -244v-852q0 -135 -78 -209.5t-213 -74.5q-193 0 -260 110q-47 82 -47 289zM211 1137l2 -58l2 -59v-234l-2 -233v-219q0 -205 131 -205q121 0 121 201l2 811q0 184 -121 184q-135 0 -135 -188z" />
<glyph unicode="1" horiz-adv-x="700" d="M123 1090v139q188 31 215 207h125v-1440h-180v1094h-160z" />
<glyph unicode="2" horiz-adv-x="700" d="M49 971v188q0 162 67.5 230.5t225.5 68.5q195 0 254 -117q35 -80 35 -297q0 -100 -15 -155q-12 -61 -63 -146l-176 -278q-98 -162 -135 -301h393v-160l-447 -4l-135 6v12q0 217 88 400q43 92 221 342q86 121 87 309v33v24q0 82 -7 105q-18 86 -110 86q-109 0 -109 -164 l2 -47v-47v-45l-2 -43h-174z" />
<glyph unicode="3" horiz-adv-x="700" d="M41 244v190h170v-151q0 -80 25.5 -116t101.5 -36q74 0 94 88q6 31 6 143v105q0 123 -22 170q-39 76 -144 76q-20 0 -42.5 -2t-49.5 -9l-2 175l31 -3q201 0 201 160v164q0 127 -101 127q-100 0 -100 -145l2 -43v-43l-170 2v135q0 231 293 231q252 0 252 -245l2 -74l2 -72 q0 -188 -137 -250q98 -37 128.5 -96t30.5 -172v-320q0 -250 -303 -249q-268 0 -268 260z" />
<glyph unicode="4" horiz-adv-x="700" d="M-14 336v147l313 957h262v-955h101v-149h-107v-334h-172v334h-397zM145 483h244v760q-51 -125 -126 -388t-118 -372z" />
<glyph unicode="5" horiz-adv-x="700" d="M57 1135q0 203 17 301h510v-158h-353v-313q86 61 168 61q129 0 187 -76q45 -63 45 -200v-514q0 -254 -289 -254q-150 0 -215.5 72.5t-65.5 226.5v161h166v-176q0 -141 105 -141q74 0 102 55q16 37 17 125l2 445q0 125 -125 124q-66 0 -92 -51q-18 -37 -19 -110h-154l3 35 v192z" />
<glyph unicode="6" horiz-adv-x="700" d="M57 264v959q0 113 86 179t203 66q201 0 260 -129q31 -72 31 -307l-170 -2v86q0 203 -109 203q-125 0 -125 -158l-2 -354q92 80 195 80q211 0 211 -275l-2 -362q0 -262 -297 -262q-129 0 -205 72.5t-76 203.5zM229 242q0 -43 37 -80q39 -33 82 -33q80 0 107 72 q12 37 12 137v96l2 53l2 52q0 195 -100 194h-27q-115 0 -115 -155v-336z" />
<glyph unicode="7" horiz-adv-x="700" d="M63 1272v160h545v-152q-121 -328 -182 -608q-76 -342 -76 -670h-209v100q0 76 43 325t95.5 413t162.5 432h-379z" />
<glyph unicode="8" horiz-adv-x="700" d="M39 455q0 131 27 190q37 80 147 117q-100 20 -133 112q-19 50 -19 187q0 188 43 274q61 115 240 115q178 0 242 -113q41 -82 41 -278q0 -127 -23 -185q-31 -90 -133 -114q92 -33 131 -101q31 -55 31 -163v-62l-2 -61q0 -207 -47 -283q-61 -109 -252 -108q-203 0 -262 147 q-31 74 -31 326zM213 283q0 -160 117 -160q133 0 133 201l-2 94v94q0 168 -117 168q-131 0 -131 -152v-245zM236 981q0 -150 102 -150q119 0 119 170l-2 56l-2 55v23q0 82 -9 106q-18 72 -90 72q-74 0 -102 -47q-16 -33 -16 -117v-168z" />
<glyph unicode="9" horiz-adv-x="700" d="M39 305l4 117h166v-45l-2 -47q0 -201 112 -201q119 0 119 141v381q-70 -88 -194 -88q-98 0 -156 82q-49 72 -49 174l2 363q0 280 291 280q285 0 284 -303v-862q0 -311 -292 -311q-162 0 -228 84q-29 37 -43 93t-14 142zM205 907q0 -192 117 -192q123 0 122 145v318 q0 145 -114 145q-86 0 -111 -70q-10 -35 -10 -147v-80l-2 -59z" />
<glyph unicode=":" horiz-adv-x="370" d="M152 2v268h167v-268h-167zM154 664v262h168v-262h-168z" />
<glyph unicode=";" horiz-adv-x="370" d="M143 2v270h170v-229q0 -117 -31.5 -186.5t-127.5 -128.5v43q74 80 73 188l-2 43h-82zM150 664v264h165v-264h-165z" />
<glyph unicode="&#x3c;" horiz-adv-x="1241" d="M94 455v127l1041 471v-140l-871 -395l871 -395v-139z" />
<glyph unicode="=" horiz-adv-x="989" d="M-49 330v164h1032v-164h-1032zM-49 702v164h1032v-164h-1032z" />
<glyph unicode="&#x3e;" horiz-adv-x="1241" d="M106 -16v139l871 395l-871 395v140l1041 -471v-127z" />
<glyph unicode="?" horiz-adv-x="659" d="M94 1128q0 133 56 218q66 94 192 94q137 0 209 -83t72 -222q0 -127 -107.5 -346.5t-126.5 -339.5h-139q0 141 100.5 357t100.5 331q0 152 -101 151q-74 0 -92 -100l-6 -156l-156 -2zM240 -6v264h161v-264h-161z" />
<glyph unicode="@" horiz-adv-x="2078" d="M301 739q0 315 227.5 542.5t544.5 227.5q283 0 490 -174q215 -184 215 -465q0 -207 -140 -391q-152 -201 -350 -200q-57 0 -94 34q-37 41 -37 95q-121 -129 -250 -129t-215 97t-86 230q0 109 31 203t96 180q135 182 346 182q158 0 236 -159l41 127h141l-149 -504 q-37 -135 -37 -164q0 -59 43 -59q121 0 213 166q78 143 78 276q0 238 -168 387q-160 141 -404 141q-268 0 -445 -192.5t-177 -462.5t184 -454.5t455 -184.5q139 0 273 61.5t222 172.5h137q-98 -166 -272 -263.5t-367 -97.5q-164 0 -301 55.5t-254 169.5q-227 225 -227 553z M774 625q0 -84 46 -141.5t126 -57.5q123 0 221 147q84 131 84 263q0 70 -48 129t-120 59q-127 0 -225 -137q-84 -125 -84 -262z" />
<glyph unicode="A" horiz-adv-x="659" d="M-14 -2l200 1442h230l227 -1442h-184l-39 268h-221l-33 -268h-180zM221 438h174l-90 760q0 -141 -14 -276q-4 -39 -70 -484z" />
<glyph unicode="B" horiz-adv-x="700" d="M63 -2v1450h377q188 0 189 -240v-276q0 -121 -137 -170q63 0 98 -47q37 -43 37 -109v-379q0 -129 -62.5 -179t-195.5 -50h-306zM246 174h123q76 0 75 123v291q0 76 -67 94l-131 6v-514zM248 840h35l32 -2q96 0 121 63q8 29 8 148l2 47v45q0 139 -106 139l-92 -4v-436z " />
<glyph unicode="C" horiz-adv-x="743" d="M57 344v782q0 145 86 239.5t238 94.5q164 0 237 -100q59 -88 60 -262v-176h-184v215q0 157 -108 157h-1q-80 0 -111 -57q-20 -45 -20 -131l-2 -840q0 -51 38 -85t89 -34q115 0 115 183v268h188v-274q0 -154 -78 -244q-84 -98 -233 -98q-313 0 -314 362z" />
<glyph unicode="D" horiz-adv-x="700" d="M53 0v1444h338q123 0 181.5 -50.5t58.5 -170.5v-996q0 -125 -54.5 -176t-183.5 -51h-340zM242 174h92q72 0 89 32t17 103v875q0 37 -26.5 62.5t-61.5 25.5h-67h-21l-22 -2v-1096z" />
<glyph unicode="E" horiz-adv-x="577" d="M68 2v1444h487v-178h-289v-426h254v-178h-254v-482h283v-180h-481z" />
<glyph unicode="F" horiz-adv-x="577" d="M68 2v1442h501v-172h-303v-424h277v-172h-279v-674h-196z" />
<glyph unicode="G" horiz-adv-x="700" d="M59 299v805q0 358 299 358q248 0 248 -293v-174h-172v185q0 123 -88 123q-98 0 -98 -181v-823q0 -160 100 -160q92 0 92 164v295h-116v172h299v-772h-109l-22 72q-59 -90 -183 -90q-125 0 -192 98q-57 90 -58 221z" />
<glyph unicode="H" horiz-adv-x="700" d="M55 2v1440h193v-584h178v588h188v-1444h-190v670h-176v-670h-193z" />
<glyph unicode="I" horiz-adv-x="331" d="M70 0v1444h196v-1444h-196z" />
<glyph unicode="J" horiz-adv-x="577" d="M-12 109q0 37 8 67q148 -22 199 -22q109 0 108 176v1114h193v-1145q0 -141 -75 -227t-220 -86q-84 0 -211 26z" />
<glyph unicode="K" horiz-adv-x="700" d="M55 0v1446h199v-672q57 215 209 674h194l-241 -705l284 -741h-192q-86 213 -254 674v-676h-199z" />
<glyph unicode="L" horiz-adv-x="577" d="M70 2v1442h198v-1268h316v-174h-514z" />
<glyph unicode="M" horiz-adv-x="989" d="M49 4v1442h275l84 -535q18 -123 35.5 -243.5t35.5 -292.5q0 117 26.5 286.5t37.5 247.5q31 229 37 267q16 115 41 268h278v-1440h-174v1200l-70 -487q-31 -229 -104 -715h-158q-33 246 -68.5 505t-101.5 701v-1204h-174z" />
<glyph unicode="N" horiz-adv-x="743" d="M59 -6v1452l211 2l117 -545q70 -311 135 -538q0 141 -20 497q-10 178 -10 271v313h172v-1452h-213q-70 324 -140 647q-55 256 -104 465q0 -170 8 -372t16.5 -397.5t8.5 -342.5h-181z" />
<glyph unicode="O" horiz-adv-x="743" d="M51 365l2 612q0 119 10.5 195.5t36.5 130.5q68 153 267 153q174 0 245 -117q55 -90 56 -276l-2 -221v-375q0 -29 -4.5 -106.5t-4.5 -96.5q0 -137 -80.5 -207.5t-232.5 -70.5q-164 0 -238 112q-55 86 -55 267zM240 301q-1 -160 114 -160q127 0 127 240l-4 84l-2 82l2 284 l2 285q0 80 -22.5 127t-100.5 47q-86 0 -106 -102q-6 -29 -6 -170v-158l-2 -278z" />
<glyph unicode="P" horiz-adv-x="659" d="M63 2v1444h402q174 0 174 -221v-418q0 -115 -133 -145q-47 -10 -225 -11h-23v-649h-195zM254 825h129q25 0 47 17q16 16 21 43v301q0 86 -91 86h-106v-447z" />
<glyph unicode="Q" horiz-adv-x="743" d="M53 342v782q0 137 80 233.5t219 96.5q311 0 312 -342v-823q0 -240 -236 -301q0 -109 96 -109l86 8v-178h-73q-152 0 -212.5 62.5t-60.5 220.5q-123 31 -172 131q-39 78 -39 219zM240 299q-1 -160 122 -160q119 0 119 240l-4 78l-2 75l2 148v147v293q0 172 -117 172 q-121 0 -120 -200l2 -62l2 -61v-191l-2 -239z" />
<glyph unicode="R" horiz-adv-x="700" d="M61 4v1444h342q158 0 207 -107q29 -63 29 -249v-80q0 -123 -27 -178q-37 -86 -139 -101q168 -16 168 -317l-4 -105l-4 -104q0 -82 35 -205h-197q-31 147 -31 367q0 207 -31.5 253t-105.5 46h-49v-664h-193zM252 825h90q72 0 96 70q6 20 8.5 46t2.5 85l2 59l4 56 q0 139 -115 139h-88v-455z" />
<glyph unicode="S" horiz-adv-x="659" d="M41 289v239h174l4 -235q0 -168 94 -168t95 164q0 139 -91 299l-170 268q-90 162 -90 301q0 131 71 225.5t200 94.5q143 0 203.5 -62.5t60.5 -208.5v-233h-174v250q0 100 -70 100q-59 0 -84 -39q-16 -33 -16 -96q0 -141 90 -295l172 -266q92 -164 92 -324q0 -135 -67 -227 q-74 -102 -207 -103q-287 0 -287 316z" />
<glyph unicode="T" horiz-adv-x="659" d="M-8 1378l6 68h639v-164h-229v-1280h-199v1280h-215z" />
<glyph unicode="U" horiz-adv-x="743" d="M55 313v1133h185v-1174q0 -51 29.5 -93t78.5 -42q121 0 121 199v1110h193v-1135q0 -147 -81 -238t-229 -91q-297 0 -297 331z" />
<glyph unicode="V" horiz-adv-x="659" d="M-20 1442h188l154 -1157q0 100 18 254q10 90 47 325l76 580h188l-221 -1442h-231z" />
<glyph unicode="W" horiz-adv-x="948" d="M-35 1448h187l92 -1165q0 51 14 217t45 450l47 498l172 2q20 -182 41 -365q23 -147 31 -221q25 -209 38 -348t13 -240q0 113 8.5 231t30.5 355l51 586h193l-172 -1444l-224 -2l-55 526q-18 186 -28.5 311.5t-10.5 217.5q0 -98 -9 -222t-34.5 -359.5t-50.5 -471.5h-221z " />
<glyph unicode="X" horiz-adv-x="659" d="M-18 6q72 230 217 742l-209 702h188q51 -158 135 -475q6 53 18.5 106.5t35.5 130.5l65 236h197q-18 -57 -66 -207q-20 -68 -69 -231l-78 -258q90 -322 229 -746h-201q-53 182 -135 537q-43 -238 -143 -537h-184z" />
<glyph unicode="Y" horiz-adv-x="659" d="M-25 1450h195l139 -629q55 406 144 629h192l-162 -559l-82 -281q-6 -37 -6 -172l2 -217l4 -219h-206v606q0 8 -11.5 55.5t-42.5 159.5z" />
<glyph unicode="Z" horiz-adv-x="577" d="M6 2v135l340 1145h-262v162h463v-127l-336 -1143h311v-172h-516z" />
<glyph unicode="[" horiz-adv-x="536" d="M113 -403v1904h346v-98h-174v-1712h172v-94h-344z" />
<glyph unicode="\" horiz-adv-x="569" d="M-35 1509h135l504 -1548h-137z" />
<glyph unicode="]" horiz-adv-x="536" d="M74 -301h176v1708h-168v92h340v-1898h-348v98z" />
<glyph unicode="^" horiz-adv-x="0" d="M-242 1597l191 244h112l181 -244h-113l-127 146l-131 -146h-113z" />
<glyph unicode="_" horiz-adv-x="1138" d="M0 -154h1139v-102h-1139v102z" />
<glyph unicode="`" horiz-adv-x="0" d="M-270 1423h200l154 -247h-100z" />
<glyph unicode="a" d="M49 225l2 84q0 115 17 154q23 68 98 117l129 75q84 59 84 113l2 47l2 45q0 123 -70 123q-59 0 -77 -92l-3 -141h-167v122q0 244 235 244q242 0 242 -235l2 -731q0 -88 20 -148h-170l-30 90q-66 -104 -162 -104q-154 0 -154 237zM211 258q0 -137 80 -137q88 0 88 194v236 l-137 -109q-31 -35 -31 -184z" />
<glyph unicode="b" d="M57 4v1444h168v-420q86 86 158 86q168 0 168 -217v-641q0 -109 -43 -186q-51 -88 -158 -88q-59 0 -96 28q-27 20 -64 80l-45 -86h-88zM217 782l2 -69l4 -68v-209l-2 -209q0 -39 22.5 -67.5t61.5 -28.5q84 0 84 172v39l-2 37v397v60q0 37 -4 57q-12 76 -66 76 q-100 0 -100 -187z" />
<glyph unicode="c" horiz-adv-x="577" d="M53 262l2 627q0 104 68 165.5t174 61.5q137 0 193.5 -68.5t56.5 -209.5v-136h-160l-2 115q0 72 -6 101q-12 61 -64 61q-96 0 -96 -119l-2 -647q0 -96 84 -96q88 0 88 184l-2 64l-2 65h162v-154q0 -299 -240 -299q-141 0 -203 74q-51 63 -51 211z" />
<glyph unicode="d" d="M61 209l2 709q0 80 44.5 136t128.5 56q70 0 147 -80v416h162v-1444h-166v80l-64 -68q-38 -28 -85 -28h-3q-166 0 -166 223zM213 786l2 -45l2 -47v-420q0 -141 74 -141q55 0 78 55q10 31 10 107l4 332l2 67l2 70q0 197 -84 197q-90 0 -90 -175z" />
<glyph unicode="e" d="M59 264v617q0 102 69 168.5t173 66.5q246 0 246 -250v-352h-326l4 -303q0 -92 82 -92q80 0 80 164l-4 63l-2 64h168v-144q0 -284 -268 -284h-2q-219 0 -220 282zM221 647h164v244q0 90 -72 90q-92 0 -92 -109v-225z" />
<glyph unicode="f" horiz-adv-x="370" d="M4 961v135h90v8l-2 67v66q0 100 31 147q39 63 135 64q43 0 96 -12v-133q-92 0 -92 -105l2 -51v-53h94v-133h-94v-961h-174v961h-86z" />
<glyph unicode="g" d="M53 211l2 707q0 80 44 138t126 58q78 0 156 -78v62h164v-1127q0 -260 -244 -260q-100 0 -171 51.5t-71 151.5v16h162q0 -84 70 -84q90 0 90 144v41l-2 39q-78 -78 -162 -78q-164 0 -164 219zM215 264q0 -127 80 -127q92 0 92 189l-2 57l-2 61l2 72v70v207q0 172 -88 172 q-59 0 -74 -82q-6 -29 -6 -127v-248v-33l-2 -35v-176z" />
<glyph unicode="h" d="M61 -2v1446h164l2 -418q86 90 160 90q63 0 112.5 -50t49.5 -120v-950h-162v852q0 115 -80 115q-82 0 -82 -166v-799h-164z" />
<glyph unicode="i" horiz-adv-x="331" d="M82 2v1094h168v-1094h-168zM88 1223v217h160v-217h-160z" />
<glyph unicode="j" horiz-adv-x="331" d="M-59 -139l55 -6q76 0 76 98v1143h161v-1180q0 -199 -243 -199l-49 2v142zM72 1225v217h164v-217h-164z" />
<glyph unicode="k" horiz-adv-x="577" d="M68 2v1442h168v-772l165 426h181l-193 -420l180 -676h-174l-129 500q-37 -43 -37 -279l2 -110l2 -111h-165z" />
<glyph unicode="l" horiz-adv-x="331" d="M82 -2v1444h168v-1444h-168z" />
<glyph unicode="m" horiz-adv-x="948" d="M51 -4v1102h164v-72q70 88 150 88q111 0 167 -102q76 100 166 100q61 0 113.5 -50t52.5 -112v-956h-162l3 880q0 31 -23 59t-57 32q-55 0 -74 -47q-10 -27 -10 -95v-827h-164v866q0 102 -76 103q-55 0 -74 -58q-4 -18 -6 -38.5t-2 -63.5v-809h-168z" />
<glyph unicode="n" d="M57 2v1096h172l-2 -66q84 84 168 84q160 0 160 -219v-897h-172v805q0 160 -76 160q-33 0 -59.5 -36t-26.5 -73l2 -854h-166z" />
<glyph unicode="o" d="M57 219v631q0 121 69 192.5t191 71.5q233 0 234 -268v-639q0 -104 -68.5 -165.5t-177.5 -61.5q-111 0 -179.5 65.5t-68.5 173.5zM217 205q0 -35 22.5 -62.5t57.5 -27.5q96 0 96 131v639q0 94 -88 94q-41 0 -65 -37q-20 -41 -21 -80z" />
<glyph unicode="p" d="M55 -295v1393h170v-72q86 90 166 90q158 0 158 -213v-676q0 -237 -173 -237h-1q-68 0 -152 86v-371h-168zM221 279q0 -142 90 -142q78 0 78 180l-2 56l-2 53l2 172v172v109q0 90 -72 90q-68 0 -86 -72q-6 -29 -6 -127v-192l-2 -195v-104z" />
<glyph unicode="q" d="M53 203v688q0 225 168 225q117 0 172 -108l53 92h97v-1395h-168v375q-84 -86 -168 -86q-154 0 -154 209zM215 223q0 -35 21.5 -60.5t54.5 -25.5q92 0 92 205v49l-2 49v400q0 127 -80 127q-86 0 -86 -150v-594z" />
<glyph unicode="r" horiz-adv-x="454" d="M68 -4v1100h168v-133q35 84 78.5 115.5t136.5 31.5l-2 -192q-55 28 -91 28h-2q-123 0 -123 -203v-747h-165z" />
<glyph unicode="s" horiz-adv-x="577" d="M25 338l4 63h155v-49l-2 -49q0 -178 103 -178q86 0 86 121q0 109 -84 205l-156 161q-84 102 -84 232q0 268 242 268q139 0 192 -96q41 -72 41 -221v-25h-153q0 86 -9 119q-16 72 -75 72q-82 0 -82 -105q0 -88 84 -172l155 -160q84 -113 84 -256q0 -125 -59 -202 q-66 -88 -184 -89q-145 0 -211 111q-23 45 -35 104.5t-12 145.5z" />
<glyph unicode="t" horiz-adv-x="370" d="M-2 963v135h98v241h166v-239h92v-135h-92l-2 -742q0 -61 20.5 -80.5t86.5 -19.5v-119q-49 -12 -103 -12q-168 0 -168 143v828h-98z" />
<glyph unicode="u" d="M55 203v895h172v-824q0 -145 76 -145q84 0 84 152v817h162v-1102h-166v72q-86 -90 -168 -91q-160 0 -160 226z" />
<glyph unicode="v" horiz-adv-x="536" d="M-8 1096h164q31 -221 64.5 -464t33.5 -423q0 111 13.5 243t38 303t50.5 341h166l-178 -1094h-194z" />
<glyph unicode="w" horiz-adv-x="782" d="M-18 1098h157l37 -432q0 -102 7 -255t7 -180q33 270 54.5 429t66.5 438l117 -2q37 -264 100 -871q0 197 22.5 425.5t45.5 447.5h164l-146 -1096h-184q-41 322 -54.5 468t-13.5 247q0 -193 -30.5 -406t-44.5 -307h-181z" />
<glyph unicode="x" horiz-adv-x="577" d="M-20 2l198 590l-170 506h164q78 -264 104 -400q27 135 50.5 233.5t44.5 162.5h166l-166 -498q66 -246 186 -596h-172l-113 451q-61 -258 -135 -449h-157z" />
<glyph unicode="y" horiz-adv-x="536" d="M-16 1096h166l98 -879l100 877h172l-215 -1207q-18 -98 -74 -139q-59 -39 -161 -39l-56 4l2 160l9 -2q120 0 120 115q0 39 -8 88z" />
<glyph unicode="z" horiz-adv-x="536" d="M-2 -2v158l332 790h-262v152h444v-158l-336 -786h330v-156h-508z" />
<glyph unicode="{" horiz-adv-x="684" d="M86 479v123q111 0 147 137q8 31 12.5 90.5t4.5 139.5l-2 88q0 96 4 158.5t18 109.5q47 154 191 154h137v-133h-90q-94 0 -94 -168v-232l-2 -117q0 -86 -50.5 -174t-128.5 -112q180 -59 181 -412l-2 -178q0 -221 96 -221h90v-133h-137q-96 0 -152.5 80.5t-56.5 183.5v350 q0 90 -37 170q-43 96 -129 96z" />
<glyph unicode="|" horiz-adv-x="532" d="M193 -39v1548h149v-1548h-149z" />
<glyph unicode="}" horiz-adv-x="684" d="M86 -268h90q94 0 94 221l-2 176q0 156 27 242q39 131 156 168q-78 25 -132 118q-27 47 -38 85t-11 85v351q0 168 -94 168h-90v133h137q156 0 199 -193q12 -66 12 -317q0 -166 17 -230q35 -137 147 -137v-123q-84 0 -129 -96q-37 -74 -37 -170v-350q0 -102 -51 -178 q-59 -86 -158 -86h-137v133z" />
<glyph unicode="~" horiz-adv-x="0" d="M-246 1622q43 190 176 190q45 0 105 -28l80 -27q55 0 96 62l49 -2q-25 -47 -40 -77t-19 -34q-43 -66 -97 -66q-37 0 -103.5 31t-98.5 31q-61 0 -105 -80h-43z" />
<glyph unicode="&#xa1;" horiz-adv-x="370" d="M70 4v580q0 66 3 96.5t13 103.5q25 190 29 197h90l18 -193q12 -117 13 -194v-590h-166zM78 1171v263h164v-263h-164z" />
<glyph unicode="&#xa2;" horiz-adv-x="577" d="M53 262l4 629q0 90 53.5 150.5t143.5 72.5v115h86v-115q121 0 174 -98q35 -66 35 -203v-55l-2 -56h-160l2 46v45q0 186 -74 186q-96 0 -96 -119l-2 -647q0 -96 84 -96q88 0 88 184l-2 64l-2 65h162v-151q0 -281 -207 -302v-139h-86v142q-115 12 -164 92q-37 66 -37 190z " />
<glyph unicode="&#xa3;" horiz-adv-x="948" d="M-2 135q0 80 59.5 120t145.5 40q88 0 147 -21q17 46 17 109q0 102 -68 244h-213v135l160 -2q-72 203 -72 377q0 141 87 232t228 91q195 0 263 -141q39 -90 39 -313l-175 -2l2 40l3 39q0 219 -117 220q-139 0 -139 -195q0 -123 90 -346h211v-133h-160q8 -37 14 -86t6 -94 q0 -117 -57 -232q98 -70 166 -70q61 0 76 103l2 147v11l164 2l2 -88q0 -158 -33 -224q-49 -98 -191 -98q-53 0 -126.5 36t-116.5 79q-70 -70 -113 -97q-59 -33 -143 -32q-57 0 -107.5 44t-50.5 105zM100 131q0 -49 64 -49q41 0 80 27l65 55q-80 29 -121 29h-20 q-23 0 -44.5 -18.5t-23.5 -43.5z" />
<glyph unicode="&#xa4;" horiz-adv-x="856" d="M39 547l43 135h86v70h-129l43 135h86v239q0 145 86 239.5t238 94.5q164 0 237 -100q59 -88 59 -262v-135h-184v174q0 158 -108 157q-80 0 -111 -57q-20 -45 -20 -131v-219h245l-43 -135h-202v-70h180l-43 -135h-140v-281q0 -51 38 -85t89 -34q115 0 115 183v227h189v-233 q0 -154 -78 -244q-84 -98 -234 -98q-313 0 -313 362v203h-129z" />
<glyph unicode="&#xa7;" horiz-adv-x="782" d="M35 205h178l-6 -45q0 -74 34.5 -125t106.5 -51q66 0 113 36.5t47 102.5q0 100 -121 172l-221 129q-121 92 -121 248q0 96 40 156.5t122 119.5q-135 109 -135 254q0 131 85 216t214 85q307 0 307 -307v-25q0 -16 -4 -32l-150 2l4 55q0 172 -131 172q-59 0 -101 -36 t-42 -95q0 -104 125 -184l229 -133q125 -94 125 -234q0 -102 -39 -174q-29 -51 -114 -137q113 -59 112 -223q0 -135 -100 -223.5t-240 -88.5q-317 0 -317 365zM223 682q0 -61 80 -133q59 -49 139 -84q121 74 121 180q0 133 -217 215q-51 -25 -87 -75t-36 -103z" />
<glyph unicode="&#xa8;" horiz-adv-x="0" d="M-201 1219v204h146v-204h-146zM63 1219v204h154v-204h-154z" />
<glyph unicode="&#xa9;" horiz-adv-x="1472" d="M29 655q0 285 200.5 485.5t485.5 200.5t485.5 -200.5t200.5 -485.5t-201 -485.5t-485 -200.5q-285 0 -485.5 201t-200.5 485zM109 655q0 -246 178 -426t428 -180q246 0 426 178.5t180 427.5q0 246 -178 426.5t-428 180.5q-246 0 -426 -178.5t-180 -428.5zM344 639 q0 158 104.5 276.5t266.5 118.5q37 0 104.5 -18.5t104.5 -18.5q35 0 47 31h39l8 -254h-41q-16 90 -82 148.5t-156 58.5q-121 0 -200 -111q-68 -98 -68 -229q0 -135 68.5 -222t201.5 -87q88 0 142 26q14 6 40.5 24.5t75.5 53.5l23 -33q-141 -147 -297 -147 q-172 0 -276.5 104.5t-104.5 278.5z" />
<glyph unicode="&#xab;" horiz-adv-x="659" d="M31 565v209q59 57 159 146q68 59 109 94v-195l-156 -149l162 -150v-196zM338 563v213l268 240v-197l-157 -147l159 -148v-196z" />
<glyph unicode="&#xac;" horiz-adv-x="1329" d="M-35 463v108h1321v-571h-110v463h-1211z" />
<glyph unicode="&#xad;" horiz-adv-x="454" d="M43 582v174h369v-174h-369z" />
<glyph unicode="&#xae;" horiz-adv-x="1472" d="M27 645q0 285 200.5 485.5t485.5 200.5q281 0 483.5 -201.5t202.5 -484.5q0 -281 -201.5 -482.5t-484.5 -201.5q-285 0 -485.5 200.5t-200.5 483.5zM106 643q0 -252 178.5 -428t428.5 -176q246 0 426 178t180 428q0 248 -179 427t-429 179t-427.5 -179t-177.5 -429z M385 299v37q98 0 98 51v574q0 47 -22 55l-66 4v35h340q270 0 271 -185q0 -84 -59.5 -142t-141.5 -58l239 -305q23 -29 70 -29v-37h-188l-264 352h-52v-258q0 -57 92 -57v-37h-317zM608 973l2 -277q55 0 99.5 8.5t72.5 20.5q90 37 90 131q0 78 -36 113q-16 14 -45 24.5 t-72 16.5l-68 4q-43 0 -43 -41z" />
<glyph unicode="&#xb0;" horiz-adv-x="411" d="M0 1061q0 123 88 210t211 87t211 -88t88 -209q0 -123 -87 -210t-212 -87q-121 0 -210 87t-89 210zM80 1061q0 -88 63 -154q68 -63 156 -63q90 0 154.5 64.5t64.5 152.5t-65.5 153.5t-155.5 65.5t-153.5 -64.5t-63.5 -154.5z" />
<glyph unicode="&#xb1;" horiz-adv-x="1024" d="M-29 0v109h1051v-109h-1051zM-29 700v111h471v471h109v-471h471v-111h-471v-469h-109v469h-471z" />
<glyph unicode="&#xb4;" horiz-adv-x="0" d="M-72 1176l150 247h211l-264 -247h-97z" />
<glyph unicode="&#xb5;" horiz-adv-x="1073" d="M12 -303q0 57 28 163.5t28 157.5v975h172v-659q0 -229 186 -230q61 0 130 46.5t93 105.5v737h172v-762q0 -53 26.5 -110.5t78.5 -57.5q53 0 78 48l30 92l39 -2q-55 -233 -242 -234q-86 0 -131 58q-27 37 -51 141q-47 -80 -133 -135q-96 -63 -176 -64q-61 0 -109 33 l-92 63v-45q0 -59 33 -164.5t33 -154.5q0 -53 -23 -92q-25 -49 -73 -49q-47 0 -72 44t-25 95z" />
<glyph unicode="&#xb6;" horiz-adv-x="1366" d="M180 1038q0 195 131 305q121 102 322 103h471v-111h-70v-1677h-119v1677h-294v-1677h-119v995q-150 25 -238 127q-84 106 -84 258z" />
<glyph unicode="&#xb7;" horiz-adv-x="321" d="M39 608q0 55 45 94t104 39q55 0 93 -45t38 -98q0 -59 -41.5 -98t-101.5 -39q-61 0 -99 41t-38 106z" />
<glyph unicode="&#xb8;" horiz-adv-x="0" d="M-172 -291q188 0 188 58q0 70 -143 69l145 246h93l-86 -166q162 0 161 -113q0 -88 -125 -131q-90 -29 -200 -28h-33v65z" />
<glyph unicode="&#xbb;" horiz-adv-x="659" d="M31 324v194l166 152l-164 139v199l274 -236v-213zM338 322v196l166 152l-166 147v191q174 -135 274 -236v-209z" />
<glyph unicode="&#xbf;" horiz-adv-x="659" d="M20 274q0 158 115 369q59 109 89 192t30 146h143v-41q0 -117 -100 -330t-100 -329q0 -135 102 -136q74 0 92 105q0 2 2 45t2 115l152 -9l4 -92q0 -315 -258 -315q-123 0 -198 79t-75 201zM244 1171v261h164v-261h-164z" />
<glyph unicode="&#xc0;" horiz-adv-x="659" d="M-14 -2l200 1442h230l227 -1442h-184l-39 268h-221l-33 -268h-180zM16 1843h201l148 -246h-97zM221 438h174l-90 760q0 -141 -14 -276q-4 -39 -70 -484z" />
<glyph unicode="&#xc1;" horiz-adv-x="659" d="M-14 -2l200 1442h230l227 -1442h-184l-39 268h-221l-33 -268h-180zM217 1597l150 244l213 -2q-57 -33 -142 -113l-129 -129h-92zM221 438h174l-90 760q0 -141 -14 -276q-4 -39 -70 -484z" />
<glyph unicode="&#xc2;" horiz-adv-x="659" d="M-14 -2l200 1442h230l227 -1442h-184l-39 268h-221l-33 -268h-180zM45 1597l191 244h114l180 -244h-114l-127 146l-131 -146h-113zM221 438h174l-90 760q0 -141 -14 -276q-4 -39 -70 -484z" />
<glyph unicode="&#xc3;" horiz-adv-x="659" d="M-16 -2l200 1442h230l227 -1442h-184l-39 268h-221l-33 -268h-180zM41 1622q43 190 178 190q37 0 100.5 -24.5t86.5 -28.5q57 0 92 60h53q-66 -178 -158 -179q-35 0 -103.5 31t-99.5 31q-59 0 -106 -80h-43zM219 438h174l-90 760q0 -141 -14 -276q-4 -39 -70 -484z" />
<glyph unicode="&#xc4;" horiz-adv-x="659" d="M-14 -8l202 1448h230l227 -1444h-188l-35 270h-221l-29 -270l-82 2zM100 1638v203h148v-203h-148zM223 438h174q-37 252 -92 752q0 -92 -35 -375q-25 -188 -47 -377zM369 1638v203h151v-203h-151z" />
<glyph unicode="&#xc5;" horiz-adv-x="659" d="M-14 -4l204 1444h230l225 -1446h-190q0 53 -12.5 139t-18.5 131h-221l-29 -268h-188zM158 1688q0 59 44 105t107 46q66 0 113 -47q47 -43 47 -111q0 -61 -51 -103t-117 -42q-59 0 -101 44.5t-42 107.5zM209 1686q0 -43 31.5 -73t72.5 -30q37 0 69 27.5t32 64.5 q0 43 -26 78t-73 35q-39 0 -72.5 -32t-33.5 -70zM225 438h174l-90 750q0 -137 -14 -270q-4 -37 -70 -480z" />
<glyph unicode="&#xc6;" horiz-adv-x="948" d="M-72 6l308 1438h641v-174h-295v-443h258v-157h-258v-488h321v-176h-506v662h-147l-131 -662h-191zM276 823h130v504h-31z" />
<glyph unicode="&#xc7;" horiz-adv-x="743" d="M57 344v782q0 145 86 239.5t238 94.5t225 -86q53 -66 70 -203l2 -249h-184v215q0 158 -109 157q-80 0 -111 -57q-20 -45 -20 -131l-2 -840q0 -51 38 -85t89 -34q115 0 115 183v268h188v-274q0 -141 -70 -236q-39 -51 -92 -78.5t-125 -27.5l-35 -66q80 0 122 -29.5 t42 -85.5q0 -90 -125 -129q-90 -29 -202 -28h-33v65q188 0 188 58q0 70 -143 69l90 152q-242 37 -242 356z" />
<glyph unicode="&#xc8;" horiz-adv-x="577" d="M-16 1843h198l150 -246h-99zM59 2v1444h488v-178h-289v-426h254v-178h-254v-482h283v-180h-482z" />
<glyph unicode="&#xc9;" horiz-adv-x="577" d="M70 2v1444h487v-178h-289v-426h254v-178h-254v-482h283v-180h-481zM193 1597l151 244h211q-55 -37 -137 -119l-133 -125h-92z" />
<glyph unicode="&#xca;" horiz-adv-x="577" d="M33 1597l194 244h113l180 -244h-112l-127 146l-131 -146h-117zM84 2v1444h487v-178h-288v-426h254v-178h-254v-482h282v-180h-481z" />
<glyph unicode="&#xcb;" horiz-adv-x="577" d="M68 1638v203h149v-203h-149zM76 2v1444h487v-178h-289v-426h254v-178h-254v-482h283v-180h-481zM332 1634v207h153v-207h-153z" />
<glyph unicode="&#xcc;" horiz-adv-x="331" d="M-145 1843h200l148 -246h-97zM49 0v1444h197v-1444h-197z" />
<glyph unicode="&#xcd;" horiz-adv-x="331" d="M72 0v1444h196v-1444h-196zM78 1597l149 244l211 -2q-53 -33 -139 -117l-131 -125h-90z" />
<glyph unicode="&#xce;" horiz-adv-x="331" d="M-94 1597l192 244h115l178 -244h-110l-129 146l-132 -146h-114zM74 0v1444h196v-1444h-196z" />
<glyph unicode="&#xcf;" horiz-adv-x="331" d="M-59 1638v203h147v-203h-147zM66 0v1444h196v-1444h-196zM205 1634v207h151v-207h-151z" />
<glyph unicode="&#xd1;" horiz-adv-x="743" d="M61 -6v1452l211 2l117 -545q70 -311 135 -538q0 141 -20 497q-10 178 -10 271v313h172v-1452h-213q-70 324 -140 647q-55 256 -104 465q0 -170 8 -372t16.5 -397.5t8.5 -342.5h-181zM92 1622q43 190 180 190q43 0 105 -26q59 -23 84 -27q53 0 88 60h53q-41 -86 -61 -113 q-43 -66 -99 -66q-37 0 -103.5 31t-100.5 31q-70 0 -101 -80h-45z" />
<glyph unicode="&#xd2;" horiz-adv-x="743" d="M51 365l2 612q0 119 10.5 195.5t36.5 130.5q68 153 267 153q174 0 245 -117q55 -90 56 -276l-2 -221v-375q0 -29 -4.5 -106.5t-4.5 -96.5q0 -137 -80.5 -207.5t-232.5 -70.5q-164 0 -238 112q-55 86 -55 267zM66 1843h200l146 -246h-95zM240 301q-1 -160 114 -160 q127 0 127 240l-4 84l-2 82l2 284l2 285q0 80 -22.5 127t-100.5 47q-86 0 -106 -102q-6 -29 -6 -170v-158l-2 -278z" />
<glyph unicode="&#xd3;" horiz-adv-x="743" d="M51 365l2 612q0 119 10.5 195.5t36.5 130.5q68 153 267 153q174 0 245 -117q55 -90 56 -276l-2 -221v-375q0 -29 -4.5 -106.5t-4.5 -96.5q0 -137 -80.5 -207.5t-232.5 -70.5q-164 0 -238 112q-55 86 -55 267zM240 301q-1 -160 114 -160q127 0 127 240l-4 84l-2 82l2 284 l2 285q0 80 -22.5 127t-100.5 47q-86 0 -106 -102q-6 -29 -6 -170v-158l-2 -278zM266 1597l148 244h215q-53 -33 -140 -117l-133 -127h-90z" />
<glyph unicode="&#xd4;" horiz-adv-x="743" d="M51 365l2 612q0 119 10.5 195.5t36.5 130.5q68 153 267 153q174 0 245 -117q55 -90 56 -276l-2 -221v-375q0 -29 -4.5 -106.5t-4.5 -96.5q0 -137 -80.5 -207.5t-232.5 -70.5q-164 0 -238 112q-55 86 -55 267zM92 1597l191 244h114l181 -244h-113l-129 146l-131 -146h-113 zM240 301q-1 -160 114 -160q127 0 127 240l-4 84l-2 82l2 284l2 285q0 80 -22.5 127t-100.5 47q-86 0 -106 -102q-6 -29 -6 -170v-158l-2 -278z" />
<glyph unicode="&#xd5;" horiz-adv-x="743" d="M53 365l2 612q0 119 10.5 195.5t36.5 130.5q68 153 267 153q174 0 245 -117q55 -90 56 -276l-2 -221v-375q0 -29 -4.5 -106.5t-4.5 -96.5q0 -137 -80.5 -207.5t-232.5 -70.5q-164 0 -237 112q-55 86 -56 267zM88 1622q43 190 180 190q43 0 105 -26q59 -23 84 -27 q53 0 88 60h53q-41 -86 -61 -113q-43 -66 -99 -66q-37 0 -103.5 31t-101.5 31q-70 0 -100 -80h-45zM242 301q-1 -160 114 -160q127 0 127 240l-4 84l-2 82l2 284l2 285q0 80 -22.5 127t-100.5 47q-86 0 -106 -102q-6 -29 -6 -170v-158l-2 -278z" />
<glyph unicode="&#xd6;" horiz-adv-x="743" d="M51 365l2 612q0 119 10.5 195.5t36.5 130.5q68 153 267 153q174 0 245 -117q55 -90 56 -276l-2 -221v-375q0 -29 -4.5 -106.5t-4.5 -96.5q0 -137 -80.5 -207.5t-232.5 -70.5q-164 0 -238 112q-55 86 -55 267zM152 1634v203h147v-203h-147zM240 301q-1 -160 114 -160 q127 0 127 240l-4 84l-2 82l2 284l2 285q0 80 -22.5 127t-100.5 47q-86 0 -106 -102q-6 -29 -6 -170v-158l-2 -278zM420 1636v201h151v-201h-151z" />
<glyph unicode="&#xd8;" horiz-adv-x="743" d="M-23 8l82 174q-18 61 -18 152v770q0 168 81 265t243 97t249 -106l56 108l71 -36l-82 -170l7 -111v-879q0 -129 -86 -206.5t-218 -77.5q-158 0 -249 100l-62 -119zM225 324q0 -176 127 -177q57 0 92 41t35 101l-2 575q-61 -133 -133 -280q-31 -61 -117 -236v-12zM227 545 q49 86 133 262l123 266v43q0 184 -127 184q-129 0 -129 -208v-547z" />
<glyph unicode="&#xd9;" horiz-adv-x="743" d="M55 313v1133h185v-1174q0 -51 29.5 -93t78.5 -42q121 0 121 199v1110h193v-1135q0 -147 -81 -238t-229 -91q-297 0 -297 331zM61 1843h201l146 -246h-95z" />
<glyph unicode="&#xda;" horiz-adv-x="743" d="M55 313v1133h185v-1174q0 -51 29.5 -93t78.5 -42q121 0 121 199v1110h193v-1135q0 -147 -81 -238t-229 -91q-297 0 -297 331zM262 1597l148 244h215q-53 -33 -140 -117l-133 -127h-90z" />
<glyph unicode="&#xdb;" horiz-adv-x="743" d="M55 313v1133h185v-1174q0 -51 29.5 -93t78.5 -42q121 0 121 199v1110h193v-1135q0 -147 -81 -238t-229 -91q-297 0 -297 331zM88 1597l191 244h114l180 -244h-112l-129 146l-131 -146h-113z" />
<glyph unicode="&#xdc;" horiz-adv-x="743" d="M55 313v1133h185v-1161q0 -57 28.5 -101.5t81.5 -44.5q119 0 119 197v1110h193v-1135q0 -147 -81 -238t-229 -91q-297 0 -297 331zM145 1638v205h148v-205h-148zM412 1638v205h153v-205h-153z" />
<glyph unicode="&#xdf;" d="M63 -4v1266q0 94 78 147q68 45 164 45q154 0 203 -88q33 -66 33 -227q0 -43 -19 -78q-10 -23 -53 -62q84 -31 84 -131v-632q0 -127 -49 -189q-49 -55 -180 -55l-56 4v147q72 0 98.5 29t26.5 98v561q0 113 -114 113v119q98 0 98 119q0 133 -74 133q-55 0 -74 -47 q-6 -23 -6 -97v-1175h-160z" />
<glyph unicode="&#xe0;" d="M14 1423h203l150 -247h-97zM53 225l2 82q0 117 17 156q23 68 98 117l129 75q84 59 84 113l2 43v45q0 123 -74 123q-76 0 -75 -141v-50l2 -38h-168v122q0 244 235 244q242 0 242 -235l2 -731q0 -88 20 -148h-170l-30 92q-70 -106 -162 -106q-154 0 -154 237zM215 258 q0 -137 80 -137q88 0 88 194v236l-137 -109q-31 -35 -31 -184z" />
<glyph unicode="&#xe1;" d="M49 225l2 82q0 117 17 156q23 68 98 117l129 75q84 59 84 113l2 43v45q0 123 -74 123q-76 0 -76 -141v-50l2 -38h-167v122q0 244 235 244q242 0 242 -235l2 -731q0 -88 20 -148h-170l-30 92q-70 -106 -162 -106q-154 0 -154 237zM211 258q0 -137 80 -137q88 0 88 194v236 l-137 -109q-31 -35 -31 -184zM211 1176l147 247h211l-264 -247h-94z" />
<glyph unicode="&#xe2;" d="M47 1178q130 147 191 245h112l187 -245h-115l-123 147l-139 -147h-113zM59 225l2 82q0 117 17 156q23 68 98 117l129 75q84 59 84 113l2 43v45q0 123 -74 123q-76 0 -75 -141v-50l2 -38h-168v122q0 244 235 244q242 0 242 -235l2 -731q0 -88 20 -148h-169l-31 92 q-70 -106 -162 -106q-154 0 -154 237zM221 258q0 -137 80 -137q88 0 88 194v236l-137 -109q-31 -35 -31 -184z" />
<glyph unicode="&#xe3;" d="M43 1206q49 189 176 189q31 0 94.5 -24.5t96.5 -24.5q55 0 92 57h51l-57 -115q-45 -63 -103 -63q-43 0 -107.5 29.5t-88.5 29.5q-86 0 -105 -78h-49zM61 225l2 82q0 117 17 156q23 68 98 117l129 75q84 59 84 113l2 43v45q0 123 -74 123q-76 0 -75 -141v-50l2 -38h-168 v122q0 244 235 244q242 0 242 -235l2 -731q0 -88 21 -148h-170l-31 92q-70 -106 -162 -106q-154 0 -154 237zM223 258q0 -137 80 -137q88 0 88 194v236l-137 -109q-31 -35 -31 -184z" />
<glyph unicode="&#xe4;" d="M49 190v148q0 143 84 219l158 98q84 55 84 160v45q0 121 -72 121q-55 0 -72 -92l-2 -139h-163v127q0 98 52 168.5t148 70.5q139 0 206 -55t67 -193v-712q0 -98 20 -160h-168l-33 92q-61 -102 -157 -102q-152 0 -152 204zM94 1223v202h146v-202h-146zM209 252 q0 -133 76 -133q39 0 65 53q20 47 21 88v289l-109 -88q-53 -43 -53 -129v-80zM360 1223v202h152v-202h-152z" />
<glyph unicode="&#xe5;" d="M49 174v174q0 137 84 209l156 96q90 57 90 148v84q0 98 -55 98q-96 0 -97 -147l2 -43v-43h-166q0 98 8.5 157.5t20.5 89.5q43 119 195 119q252 0 252 -237v-738q0 -29 20 -143h-166l-33 90q-55 -102 -157 -102q-154 0 -154 188zM145 1317q0 61 45 108q50 45 111 45 t107.5 -45t46.5 -108q0 -61 -45 -106.5t-111 -45.5q-59 0 -109 43q-45 45 -45 109zM201 1325q0 -41 26.5 -74.5t65.5 -33.5q41 0 75.5 27.5t34.5 68.5q0 39 -30.5 73.5t-71.5 34.5q-35 0 -67.5 -29.5t-32.5 -66.5zM211 225q0 -109 78 -108q88 0 88 196v234q-86 -57 -115 -88 q-51 -55 -51 -131v-103z" />
<glyph unicode="&#xe6;" horiz-adv-x="905" d="M18 334q0 96 29 147q14 27 39 53.5t66 55.5l124 76q72 53 72 116l2 33v33q0 129 -63 129q-92 0 -92 -131l2 -49l2 -49h-162v114q0 133 61.5 194.5t200.5 61.5q70 0 135 -45q106 47 195 47q98 0 155 -78q51 -70 52 -170v-366h-324v-254q0 -135 88 -135q68 0 68 141v145 h168v-100q0 -166 -43 -233q-55 -90 -213 -90q-72 0 -117 24.5t-94 85.5q-72 -109 -185 -108q-96 0 -135 63q-14 23 -21.5 59.5t-7.5 88.5zM184 266q0 -150 72 -149q43 0 68 37q8 10 17 31.5t9 50.5l-2 309l-135 -105q-29 -35 -29 -174zM508 799l2 -76v-78h160v256 q0 33 -23 55q-18 25 -53 25q-86 0 -86 -182z" />
<glyph unicode="&#xe7;" horiz-adv-x="577" d="M53 262l2 627q0 104 68 165.5t174 61.5q180 0 229 -127q20 -66 21 -287l-160 -2v172q0 106 -72 107q-96 0 -96 -119l-2 -647q0 -96 82 -96q92 0 92 184l-4 66l-2 63h162v-154q0 -299 -234 -299l-32 -61q80 0 121.5 -29.5t41.5 -85.5q0 -90 -125 -129q-90 -29 -202 -28 h-33v65q190 0 190 58q0 70 -143 69l88 148q-166 35 -166 278z" />
<glyph unicode="&#xe8;" d="M14 1423h203l150 -247h-97zM66 264v617q0 102 68.5 168.5t172.5 66.5q246 0 246 -250v-352h-326l4 -303q0 -92 82 -92q80 0 80 164l-4 63l-2 64h168v-144q0 -285 -270 -284q-219 0 -219 282zM227 647h164v244q0 90 -72 90q-92 0 -92 -109v-225z" />
<glyph unicode="&#xe9;" d="M61 264v617q0 102 69 168.5t173 66.5q246 0 246 -250v-352h-326l4 -303q0 -92 82 -92q80 0 80 164l-4 63l-2 64h168v-144q0 -285 -270 -284q-219 0 -220 282zM211 1176l147 247h211l-264 -247h-94zM223 647h164v244q0 90 -72 90q-92 0 -92 -109v-225z" />
<glyph unicode="&#xea;" d="M55 1178q130 147 191 245h112l187 -245h-115l-123 147l-139 -147h-113zM80 264v617q0 102 68.5 168.5t173.5 66.5q246 0 245 -250v-352h-325l4 -303q0 -92 82 -92q80 0 80 164l-5 63l-2 64h168v-144q0 -285 -270 -284q-219 0 -219 282zM242 647h164v244q0 90 -72 90 q-92 0 -92 -109v-225z" />
<glyph unicode="&#xeb;" d="M59 264v617q0 102 69 168.5t173 66.5q246 0 246 -250v-352h-326l4 -303q0 -92 82 -92q80 0 80 164l-4 63l-2 64h168v-144q0 -285 -270 -284q-219 0 -220 282zM78 1219v204h145v-204h-145zM221 647h164v244q0 90 -72 90q-92 0 -92 -109v-225zM344 1219v204h150v-204h-150z " />
<glyph unicode="&#xec;" horiz-adv-x="331" d="M-135 1423h203l149 -247h-96zM74 -2v1098h168v-1098h-168z" />
<glyph unicode="&#xed;" horiz-adv-x="331" d="M84 1176l147 247h211l-264 -247h-94zM92 -2v1098h168v-1098h-168z" />
<glyph unicode="&#xee;" horiz-adv-x="331" d="M-94 1180l100 118q29 35 47 61.5t43 63.5h113l186 -245h-114l-121 147l-142 -147zM88 -2v1098h168v-1098h-168z" />
<glyph unicode="&#xef;" horiz-adv-x="331" d="M-51 1219v204h145v-204h-145zM86 -2v1098h168v-1098h-168zM213 1219v204h149v-204h-149z" />
<glyph unicode="&#xf1;" d="M47 1206q49 189 176 189q31 0 94.5 -24.5t96.5 -24.5q55 0 92 57h51l-57 -115q-45 -63 -103 -63q-43 0 -107.5 29.5t-88.5 29.5q-86 0 -105 -78h-49zM74 2v1096h172l-2 -66q84 84 168 84q160 0 159 -219v-897h-172v805q0 160 -75 160q-33 0 -59.5 -36t-26.5 -73l2 -854 h-166z" />
<glyph unicode="&#xf2;" d="M14 1423h203l150 -247h-97zM63 219v631q0 121 69 192.5t192 71.5q233 0 233 -268v-639q0 -104 -68.5 -165.5t-177.5 -61.5q-111 0 -179.5 65.5t-68.5 173.5zM223 205q0 -35 22.5 -62.5t57.5 -27.5q96 0 96 131v639q0 94 -88 94q-41 0 -65 -37q-20 -41 -21 -80z" />
<glyph unicode="&#xf3;" d="M59 219v631q0 121 69 192.5t191 71.5q233 0 234 -268v-639q0 -104 -68.5 -165.5t-177.5 -61.5q-111 0 -179.5 65.5t-68.5 173.5zM211 1176l147 247h211l-264 -247h-94zM219 205q0 -35 22.5 -62.5t57.5 -27.5q96 0 96 131v639q0 94 -88 94q-41 0 -65 -37q-20 -41 -21 -80z " />
<glyph unicode="&#xf4;" d="M53 1178q130 147 191 245h112l187 -245h-115l-123 147l-139 -147h-113zM76 219v631q0 121 68.5 192.5t191.5 71.5q233 0 233 -268v-639q0 -104 -68.5 -165.5t-176.5 -61.5q-111 0 -179.5 65.5t-68.5 173.5zM236 205q0 -35 22.5 -62.5t56.5 -27.5q96 0 97 131v639 q0 94 -88 94q-41 0 -66 -37q-20 -41 -20 -80z" />
<glyph unicode="&#xf5;" d="M47 1206q49 189 176 189q31 0 94.5 -24.5t96.5 -24.5q55 0 92 57h51l-57 -115q-45 -63 -103 -63q-43 0 -107.5 29.5t-88.5 29.5q-86 0 -105 -78h-49zM76 219v631q0 121 68.5 192.5t191.5 71.5q233 0 233 -268v-639q0 -104 -68.5 -165.5t-176.5 -61.5q-111 0 -179.5 65.5 t-68.5 173.5zM236 205q0 -35 22.5 -62.5t56.5 -27.5q96 0 97 131v639q0 94 -88 94q-41 0 -66 -37q-20 -41 -20 -80z" />
<glyph unicode="&#xf6;" d="M55 326l2 243v244q0 303 271 303q225 0 225 -270v-191l-2 -188l2 -86l2 -86q0 -154 -47 -225q-57 -88 -205 -88q-145 0 -205 104q-43 78 -43 240zM96 1221v202h146v-202h-146zM215 276q0 -157 86 -157q96 0 96 190l-2 56l-2 55v442q0 119 -78 119q-100 0 -100 -178l2 -51 l2 -54l2 -151v-152l-4 -59zM362 1221v204h154v-204h-154z" />
<glyph unicode="&#xf7;" horiz-adv-x="1024" d="M-29 469v109h1045v-109h-1045zM373 252q0 43 31.5 78t78.5 35q43 0 77 -34t34 -79q0 -43 -33 -77t-78 -34q-43 0 -76.5 33t-33.5 78zM373 795q0 43 32.5 76.5t77.5 33.5q43 0 77 -32.5t34 -77.5q0 -43 -33 -77t-78 -34q-43 0 -76.5 33t-33.5 78z" />
<glyph unicode="&#xf8;" d="M12 12l56 119q-8 49 -12.5 79t-4.5 58v586q0 121 68.5 191.5t191.5 70.5q92 0 187 -69l39 75l63 -28l-63 -121l4 -62l4 -61v-612q0 -61 -14.5 -105.5t-51.5 -81.5q-63 -70 -182 -69q-117 0 -186 77l-43 -77zM213 238q0 -115 84 -115q88 0 88 133v383l-170 -348zM215 440 l172 361v67q0 113 -86 113q-37 0 -61.5 -31.5t-24.5 -72.5v-437z" />
<glyph unicode="&#xf9;" d="M14 1423h203l150 -247h-97zM61 203v895h172v-824q0 -145 76 -145q84 0 84 152v817h162v-1102h-166v72q-86 -90 -168 -91q-160 0 -160 226z" />
<glyph unicode="&#xfa;" d="M57 203v895h172v-824q0 -145 76 -145q84 0 84 152v817h162v-1102h-166v72q-86 -90 -168 -91q-160 0 -160 226zM211 1176l147 247h211l-264 -247h-94z" />
<glyph unicode="&#xfb;" d="M51 1178q130 147 191 245h112l187 -245h-115l-123 147l-139 -147h-113zM72 203v895h172v-824q0 -145 75 -145q84 0 84 152v817h162v-1102h-166v72q-86 -90 -168 -91q-160 0 -159 226z" />
<glyph unicode="&#xfc;" d="M55 201v897h170l2 -856q0 -113 76 -113q82 0 82 164v805h162v-1102h-164v78q-63 -63 -72 -68q-41 -29 -94 -29q-162 0 -162 224zM96 1219v204h148v-204h-148zM365 1221v202h151v-202h-151z" />
<glyph unicode="&#xff;" horiz-adv-x="536" d="M-16 1096h166l98 -879l100 877h172l-215 -1207q-18 -98 -74 -139q-59 -39 -161 -39l-56 4l2 160l9 -2q121 0 120 117q0 37 -8 86zM27 1219v204h145v-204h-145zM291 1219v204h153v-204h-153z" />
<glyph unicode="&#x152;" horiz-adv-x="952" d="M37 410l6 571q0 98 2 151.5t6 79.5q12 119 70 172q68 68 221 68l283 -4l282 -2v-174h-295v-432h250v-172h-250v-494h310v-168l-265 -4l-262 -2q-215 0 -293 102q-66 88 -65 308zM219 340q0 -172 96 -172q109 0 109 178v823q0 111 -107 111q-37 0 -69 -39q-29 -39 -29 -76 v-825z" />
<glyph unicode="&#x153;" horiz-adv-x="948" d="M39 240v620q0 262 256 262q115 0 166 -57q78 55 164 55q111 0 179 -56t68 -169v-379h-335v-266q0 -125 88 -125q90 0 90 162l-2 61l-2 62h163v-91q0 -164 -45 -235q-55 -94 -211 -94q-88 0 -159 57q-31 -16 -84 -37.5t-86 -21.5q-250 0 -250 252zM197 268q0 -145 88 -145 q92 0 92 147v568q0 147 -72 147q-80 0 -100 -84l-4 -147zM535 649h178v33l2 111v110q0 31 -23.5 57.5t-56.5 26.5q-100 0 -100 -166v-172z" />
<glyph unicode="&#x178;" horiz-adv-x="659" d="M-25 1450h195l139 -629q55 406 144 629h192l-162 -559l-82 -281q-6 -37 -6 -172l2 -217l4 -219h-206v606q0 8 -11.5 55.5t-42.5 159.5zM82 1638v203h149v-203h-149zM346 1634v207h152v-207h-152z" />
<glyph unicode="&#x2c6;" horiz-adv-x="0" d="M-240 1178l187 245h112l185 -245h-115l-121 147l-139 -147h-109z" />
<glyph unicode="&#x2dc;" horiz-adv-x="0" d="M-250 1206q53 189 176 189q31 0 94.5 -24.5t96.5 -24.5q55 0 92 57h49q-43 -94 -57 -113q-43 -66 -103 -65q-41 0 -105.5 29.5t-90.5 29.5q-59 0 -105 -78h-47z" />
<glyph unicode="&#x2000;" horiz-adv-x="921" />
<glyph unicode="&#x2001;" horiz-adv-x="1843" />
<glyph unicode="&#x2002;" horiz-adv-x="921" />
<glyph unicode="&#x2003;" horiz-adv-x="1843" />
<glyph unicode="&#x2004;" horiz-adv-x="614" />
<glyph unicode="&#x2005;" horiz-adv-x="460" />
<glyph unicode="&#x2006;" horiz-adv-x="307" />
<glyph unicode="&#x2007;" horiz-adv-x="307" />
<glyph unicode="&#x2008;" horiz-adv-x="230" />
<glyph unicode="&#x2009;" horiz-adv-x="368" />
<glyph unicode="&#x200a;" horiz-adv-x="102" />
<glyph unicode="&#x2010;" horiz-adv-x="454" d="M43 582v174h369v-174h-369z" />
<glyph unicode="&#x2011;" horiz-adv-x="454" d="M43 582v174h369v-174h-369z" />
<glyph unicode="&#x2012;" horiz-adv-x="454" d="M43 582v174h369v-174h-369z" />
<glyph unicode="&#x2013;" horiz-adv-x="700" d="M35 586v176h612v-176h-612z" />
<glyph unicode="&#x2014;" horiz-adv-x="989" d="M-49 520v168h1032v-168h-1032z" />
<glyph unicode="&#x2018;" horiz-adv-x="288" d="M66 903v250q0 207 157 287v-35q-74 -72 -73 -180v-56h79v-266h-163z" />
<glyph unicode="&#x2019;" horiz-adv-x="288" d="M61 1184v264h166v-250q0 -121 -28.5 -173t-126.5 -118v43q76 70 75 191l-2 43h-84z" />
<glyph unicode="&#x201a;" horiz-adv-x="288" d="M49 4v264h168v-250q0 -115 -35 -172q-31 -61 -127 -125v52q49 41 68 96q10 41 10 119v16h-84z" />
<glyph unicode="&#x201c;" horiz-adv-x="577" d="M80 905v277q0 182 158 258v-37q-72 -61 -72 -189l2 -43h78v-266h-166zM350 903v244q0 221 156 291v-37q-74 -80 -74 -197l2 -37h82v-264h-166z" />
<glyph unicode="&#x201d;" horiz-adv-x="577" d="M68 1182v266h163v-256q0 -106 -31.5 -167.5t-121.5 -117.5v39q51 51 65 109l7 127h-82zM342 1182v266h162v-246q0 -215 -160 -293v43q78 78 78 199v16l-2 15h-78z" />
<glyph unicode="&#x201e;" horiz-adv-x="577" d="M57 4v264h166v-266q0 -176 -155 -274v45q72 76 71 182v49h-82zM330 2v266h168v-227q0 -119 -31 -186.5t-127 -128.5v43q53 57 61 110l9 123h-80z" />
<glyph unicode="&#x2022;" horiz-adv-x="681" d="M74 723q0 109 81 187.5t191 78.5q106 0 184 -78.5t78 -187.5q0 -113 -75.5 -189.5t-186.5 -76.5q-113 0 -192.5 77.5t-79.5 188.5z" />
<glyph unicode="&#x2026;" horiz-adv-x="2039" d="M236 0v217h213v-217h-213zM918 0v217h212v-217h-212zM1599 0v217h213v-217h-213z" />
<glyph unicode="&#x202f;" horiz-adv-x="368" />
<glyph unicode="&#x2039;" horiz-adv-x="681" d="M180 473v189l322 251v-180l-215 -166l215 -166v-180z" />
<glyph unicode="&#x203a;" horiz-adv-x="681" d="M180 221v180l215 166l-215 166v180l322 -251v-189z" />
<glyph unicode="&#x205f;" horiz-adv-x="460" />
<glyph unicode="&#x20ac;" horiz-adv-x="856" d="M39 547l43 135h86v70h-129l43 135h86v239q0 145 86 239.5t238 94.5q164 0 237 -100q59 -88 59 -262v-135h-184v174q0 158 -108 157q-80 0 -111 -57q-20 -45 -20 -131v-219h245l-43 -135h-202v-70h180l-43 -135h-140v-281q0 -51 38 -85t89 -34q115 0 115 183v227h189v-233 q0 -154 -78 -244q-84 -98 -234 -98q-313 0 -313 362v203h-129z" />
<glyph unicode="&#x2122;" horiz-adv-x="1658" d="M-47 1145l6 192h631l6 -192l-37 -2v18q0 84 -76 115q-16 6 -60 11t-89 5v-618q0 -55 98 -56v-36h-317v36q102 0 102 56l-2 616q-115 0 -158 -18q-68 -29 -67 -129zM653 1300v37h226l264 -573l250 573h221v-37h-19q-78 0 -77 -49v-577q0 -55 98 -56v-36h-318v36 q102 0 103 56v551l-266 -643h-37l-287 610v-518q0 -55 102 -56v-36h-256v36q100 0 101 56v557q0 47 -31 63q-12 6 -74 6z" />
<glyph unicode="&#xe000;" horiz-adv-x="1095" d="M0 0v1096h1096v-1096h-1096z" />
</font>
</defs>
</svg>
